<?xml version="1.0" standalone="no"?>
<!DOCTYPE svg PUBLIC "-//W3C//DTD SVG 20010904//EN"
 "http://www.w3.org/TR/2001/REC-SVG-20010904/DTD/svg10.dtd">
<svg version="1.0" xmlns="http://www.w3.org/2000/svg"
 width="1200.000000pt" height="1326.000000pt" viewBox="0 0 1200.000000 1326.000000"
 preserveAspectRatio="xMidYMid meet">

<g transform="translate(0.000000,1326.000000) scale(0.100000,-0.100000)"
fill="red" stroke="none">
<path d="M460 13247 c0 -12 208 -773 296 -1085 102 -361 379 -1303 711 -2417
366 -1233 637 -2182 631 -2215 -2 -9 -471 -480 -1043 -1048 -572 -568 -1041
-1038 -1043 -1045 -6 -29 402 -872 654 -1348 203 -386 858 -1586 872 -1601 8
-8 921 328 1657 610 259 99 471 177 473 173 1 -4 -115 -331 -259 -727 -279
-767 -908 -2518 -905 -2521 1 -1 685 -7 1521 -13 940 -7 2396 -8 3816 -4
l2296 7 7 366 c4 201 9 367 12 370 2 2 408 10 902 17 493 7 908 13 921 13 l23
1 -4 430 c-2 236 -7 432 -11 436 -9 9 -3086 8 -3095 -1 -3 -3 -8 -144 -10
-314 l-5 -309 -226 -7 c-254 -9 -4270 2 -4512 11 l-157 7 193 576 c106 317
311 918 455 1336 321 933 730 2126 730 2131 0 2 -15 -3 -32 -11 -50 -23 -1317
-538 -1735 -706 -647 -259 -973 -384 -1369 -524 l-121 -43 -125 206 c-223 367
-415 708 -616 1093 l-71 137 217 208 c381 365 1198 1172 1485 1467 l278 285
-240 854 c-273 974 -395 1419 -511 1868 -45 173 -88 337 -95 363 -12 40 -12
48 -1 44 40 -16 616 -451 876 -662 1004 -815 1472 -1176 1889 -1453 l174 -115
36 13 c57 20 364 172 496 246 495 277 900 570 1905 1384 439 355 780 618 1003
774 53 37 97 71 97 74 0 4 -144 151 -319 326 l-319 319 -93 -54 c-243 -139
-515 -334 -1092 -782 -570 -442 -810 -606 -1142 -778 -184 -95 -319 -152 -487
-205 l-107 -34 -133 97 c-660 481 -1279 974 -2678 2133 -775 641 -1279 1047
-1740 1399 -168 129 -311 238 -317 243 -7 6 -13 8 -13 5z"/>
<path d="M8786 10089 c-611 -450 -2314 -1747 -2315 -1762 -1 -6 545 -681 594
-735 9 -10 146 90 656 479 823 628 1170 896 1602 1237 l348 274 -24 31 c-13
18 -135 186 -271 375 -136 188 -251 342 -255 342 -5 0 -155 -109 -335 -241z"/>
<path d="M9690 9122 c-453 -280 -771 -508 -1630 -1172 -239 -185 -508 -391
-597 -459 -90 -67 -163 -125 -163 -128 0 -10 371 -713 376 -713 20 0 2706
1811 2753 1855 4 4 -548 719 -558 723 -3 1 -85 -47 -181 -106z"/>
<path d="M10280 7987 c-135 -89 -427 -279 -650 -421 -775 -496 -1131 -743
-1513 -1050 l-148 -119 6 -146 c3 -80 8 -225 11 -322 l6 -176 212 97 c330 152
499 232 956 455 453 221 1755 876 1782 897 14 12 -6 62 -195 480 -117 257
-214 467 -217 467 -3 1 -115 -72 -250 -162z"/>
<path d="M4281 7454 c-30 -8 -80 -29 -110 -46 -31 -17 -87 -47 -125 -67 -182
-95 -277 -274 -261 -494 7 -98 44 -225 89 -301 51 -87 151 -182 234 -224 75
-36 78 -37 191 -37 86 0 128 5 161 18 25 9 84 26 132 37 201 44 318 148 358
319 19 80 8 228 -24 326 -107 330 -392 537 -645 469z"/>
<path d="M10640 6644 c-853 -381 -1075 -485 -1383 -646 -288 -151 -715 -404
-767 -454 -9 -9 -41 -147 -86 -372 -39 -196 -70 -358 -69 -359 1 -2 179 47
396 108 749 210 1534 456 2293 718 209 73 381 133 382 134 5 7 -313 1061 -321
1063 -5 1 -206 -85 -445 -192z"/>
<path d="M11215 5315 c-831 -171 -1490 -371 -2094 -634 -182 -80 -460 -216
-477 -234 -10 -10 -84 -488 -84 -540 0 -15 6 -17 33 -12 17 3 140 21 272 40
559 83 1100 179 1735 309 412 85 1146 249 1156 259 10 9 -304 852 -318 854 -7
1 -107 -18 -223 -42z"/>
<path d="M11280 4079 c-1212 -238 -1619 -320 -2050 -412 l-475 -101 -1 -291
c-1 -159 -5 -355 -10 -435 -25 -411 33 -644 198 -796 77 -71 77 -71 293 -88
494 -39 1041 -43 2339 -19 l359 6 -7 511 c-4 281 -9 512 -10 514 -2 1 -64 -2
-137 -8 -159 -13 -378 -44 -779 -111 -460 -76 -578 -90 -840 -96 -184 -4 -262
-2 -360 11 -246 32 -467 104 -645 210 -49 30 -99 62 -110 71 -19 15 -16 16 55
10 119 -9 685 -6 868 5 473 29 898 80 1775 211 85 13 147 27 147 33 0 6 -40
198 -90 426 -49 228 -90 418 -90 422 0 11 9 13 -430 -73z"/>
</g>
</svg>
